<?xml version="1.0" standalone="no"?>
<!DOCTYPE svg PUBLIC "-//W3C//DTD SVG 20010904//EN"
 "http://www.w3.org/TR/2001/REC-SVG-20010904/DTD/svg10.dtd">
<svg version="1.0" xmlns="http://www.w3.org/2000/svg"
 width="491.000000pt" height="508.000000pt" viewBox="0 0 491.000000 508.000000"
 preserveAspectRatio="xMidYMid meet">

<g transform="translate(0.000000,508.000000) scale(0.100000,-0.100000)"
fill="#000000" stroke="none">
<path d="M2274 4665 c13 -58 50 -120 103 -173 41 -41 80 -66 187 -116 194 -92
278 -153 317 -228 11 -21 21 -38 23 -38 9 0 -14 73 -33 106 -31 52 -19 53 22
2 47 -57 96 -151 103 -199 4 -21 11 -36 16 -33 14 9 0 111 -23 162 -26 60 -4
48 38 -20 29 -48 36 -70 42 -133 l6 -77 72 -23 c64 -20 140 -61 130 -71 -2 -2
-41 3 -86 12 -55 10 -122 15 -198 12 -100 -3 -111 -1 -86 10 26 12 25 13 -23
8 -86 -8 -219 -73 -296 -144 -55 -51 -27 -2 35 60 63 64 154 120 216 133 l33
7 -4 72 c-8 117 -69 207 -183 272 l-50 28 58 -61 c31 -34 57 -64 57 -67 0 -3
-36 23 -79 58 -73 59 -134 93 -309 172 -34 15 -83 47 -107 71 -49 47 -57 40
-24 -22 30 -57 75 -101 149 -146 36 -21 62 -39 59 -39 -17 0 -109 36 -139 56
-81 51 -149 158 -151 239 l-1 40 -10 -43 c-12 -56 3 -156 35 -225 46 -99 151
-176 289 -213 84 -23 91 -32 21 -27 -125 9 -301 79 -319 128 -4 8 -11 15 -16
15 -17 0 -2 -112 20 -156 25 -49 74 -95 130 -124 24 -12 42 -24 39 -27 -9 -8
-119 27 -163 53 -94 55 -177 177 -191 280 -8 58 -14 49 -23 -28 l-6 -63 -12
40 c-30 102 -5 212 71 309 l32 41 -47 -39 c-55 -44 -123 -140 -138 -194 -14
-53 -12 -151 5 -207 8 -27 12 -51 10 -53 -2 -2 -17 23 -34 56 -35 70 -48 150
-32 207 16 58 6 54 -18 -7 l-22 -53 4 46 c5 55 45 146 89 201 18 23 59 61 91
85 65 47 64 50 -6 28 -216 -65 -360 -228 -381 -430 l-7 -60 19 50 c25 66 49
112 64 121 8 5 9 0 4 -17 -31 -107 -23 -219 24 -314 41 -83 97 -145 186 -205
80 -53 80 -58 -1 -36 -132 35 -262 142 -306 251 -20 51 -23 78 -24 173 0 106
-1 111 -12 72 -21 -72 -26 -153 -13 -216 31 -151 126 -241 311 -290 35 -10 65
-19 67 -20 2 -1 -7 -19 -21 -41 -24 -38 -47 -96 -47 -117 0 -6 13 12 30 40 16
29 46 66 67 83 32 27 44 31 73 26 l35 -6 -50 34 c-62 43 -159 145 -185 197
-11 22 -20 41 -20 44 0 2 30 -26 68 -63 82 -83 169 -127 271 -140 108 -14 129
-3 47 25 -78 26 -165 76 -204 118 -15 16 -22 27 -17 24 6 -2 40 -18 77 -36
109 -52 209 -75 318 -75 87 1 188 20 255 48 13 6 4 -9 -24 -41 -23 -27 -50
-62 -58 -79 -13 -25 -5 -20 41 24 30 30 58 53 61 50 2 -3 -13 -28 -33 -56 -37
-49 -69 -110 -61 -117 2 -3 29 0 59 6 102 19 301 -6 383 -49 42 -21 28 -26
-24 -8 -48 18 -222 32 -261 22 l-25 -7 43 -82 c24 -46 44 -86 44 -90 0 -5 -96
-8 -213 -8 -185 0 -221 3 -282 21 -42 12 -103 21 -150 22 -71 1 -88 -2 -151
-31 -69 -33 -72 -33 -109 -18 -86 36 -134 12 -143 -73 -8 -91 37 -162 113
-177 37 -7 41 -14 25 -45 -18 -33 -3 -21 20 17 16 25 24 59 29 112 5 68 8 77
26 77 15 0 21 -9 27 -45 12 -67 58 -152 97 -177 22 -15 49 -23 78 -23 107 0
194 95 205 225 l3 30 225 0 225 0 3 -73 c3 -66 -3 -103 -24 -157 -17 -47 10
-2 32 52 l24 58 0 -73 c0 -97 -16 -156 -54 -197 -46 -48 -101 -60 -185 -42
-36 9 -67 14 -69 12 -2 -1 21 -17 50 -34 33 -19 46 -31 34 -31 -30 0 -104 39
-126 67 -28 36 -25 7 5 -46 39 -68 33 -121 -18 -147 l-30 -16 39 -23 c40 -25
77 -71 89 -115 6 -22 2 -19 -29 15 l-37 40 25 -40 c24 -39 31 -70 27 -130 -1
-23 -3 -27 -11 -15 -5 8 -10 25 -10 38 0 44 -50 121 -94 144 -17 9 -16 6 4
-22 l23 -32 -47 36 c-41 31 -126 66 -163 66 -8 0 -3 -13 13 -37 22 -32 25 -46
22 -90 -5 -60 -2 -61 17 -6 l14 38 1 -34 c0 -55 -37 -119 -88 -152 -62 -39
-68 -37 -32 12 35 49 54 109 40 123 -6 6 -10 21 -10 35 0 15 -9 40 -21 56
l-20 30 6 -32 c8 -41 -15 -87 -52 -101 -44 -17 -103 -26 -103 -14 0 5 15 13
34 16 18 4 41 15 50 25 16 17 15 19 -26 25 -24 4 -62 18 -85 32 -68 39 -126
32 -149 -20 l-13 -31 -1 31 c0 16 6 39 14 49 12 17 11 23 -10 48 -35 41 -32
90 6 129 27 27 36 30 72 25 24 -3 58 -19 82 -37 85 -65 168 -85 246 -60 l25 8
-28 1 c-32 1 -27 21 5 21 37 0 109 41 129 74 10 17 19 47 19 66 l0 35 -24 -36
c-37 -54 -92 -75 -181 -69 -24 1 -20 4 23 15 75 18 89 35 29 35 -47 0 -95 18
-129 48 -20 17 -23 10 -8 -19 16 -28 -2 -23 -37 11 -17 17 -34 46 -37 65 -4
19 -18 43 -33 55 -32 25 -52 26 -30 2 25 -27 22 -45 -5 -35 -13 4 -42 8 -65 8
-24 0 -43 4 -43 8 0 5 -7 3 -16 -4 -14 -11 -18 -10 -30 5 -12 17 -13 14 -11
-26 1 -33 6 -44 15 -40 11 4 10 -2 -1 -29 -10 -26 -24 -38 -58 -50 l-44 -17
28 -7 c19 -5 25 -10 17 -15 -7 -4 -26 -4 -43 1 -17 5 -32 7 -34 5 -10 -10 44
-57 78 -67 39 -12 39 -12 39 -63 -1 -125 -47 -247 -112 -301 l-33 -26 40 16
c22 8 50 26 62 40 29 33 33 31 23 -5 -14 -48 -50 -100 -84 -122 l-31 -20 49 6
c43 5 47 4 41 -12 -4 -9 -9 -44 -12 -77 -7 -85 23 -160 90 -228 52 -52 162
-124 125 -81 -9 11 -30 46 -45 79 -24 52 -28 72 -28 155 0 52 5 103 11 114 9
15 11 1 11 -65 -1 -92 16 -146 67 -206 31 -37 114 -86 169 -101 l38 -11 21 47
c25 59 28 161 4 216 -23 55 -13 56 19 1 32 -53 44 -154 26 -206 -6 -18 -9 -34
-7 -37 3 -2 34 12 69 32 149 83 257 241 302 440 3 15 9 26 12 23 8 -9 -16
-160 -32 -208 -9 -26 -11 -39 -3 -39 21 0 165 156 197 214 40 72 71 189 72
275 1 57 2 62 10 36 6 -16 11 -72 12 -123 2 -77 4 -89 15 -75 48 65 68 270 37
383 -21 76 -45 239 -45 303 0 68 18 163 37 200 19 38 -3 25 -28 -17 -29 -48
-24 -3 6 53 36 65 83 94 160 99 58 4 64 2 98 -28 21 -18 42 -48 48 -71 15 -49
-2 -116 -66 -263 -43 -100 -65 -187 -65 -255 1 -34 2 -33 29 29 28 66 57 116
125 224 21 32 54 91 73 132 32 67 35 80 32 146 -4 62 -9 80 -36 121 -35 51
-31 59 11 26 30 -24 53 -64 70 -122 l11 -41 35 70 c32 63 35 76 35 159 0 67
-5 101 -19 132 -18 40 -18 43 0 110 13 48 18 102 18 183 0 102 -3 122 -28 182
-38 91 -60 109 -35 28 20 -64 26 -185 10 -194 -5 -3 -12 14 -15 39 -11 71 -69
176 -129 232 -61 58 -122 91 -221 122 -91 28 -101 26 -41 -8 73 -42 143 -108
187 -175 42 -66 47 -62 18 16 l-19 53 34 -39 c38 -43 69 -117 80 -189 8 -51
-2 -157 -14 -157 -4 0 -13 19 -20 43 -22 71 -74 159 -126 212 -51 51 -122 90
-289 162 -122 52 -206 100 -255 146 l-43 42 20 -41 c21 -40 81 -102 122 -124
37 -20 14 -23 -42 -5 -131 42 -249 133 -314 240 -27 45 -35 53 -30 30z"/>
<path d="M423 3696 c3 -7 88 -157 190 -332 101 -176 368 -636 592 -1024 224
-388 465 -804 535 -925 70 -121 261 -452 425 -735 163 -283 300 -518 304 -522
3 -4 166 268 361 605 194 336 467 808 605 1047 139 239 404 698 590 1020 186
322 376 649 422 728 45 79 83 145 83 147 0 3 -202 5 -450 5 l-450 0 0 -110 0
-110 256 0 c231 0 256 -2 250 -16 -3 -9 -64 -116 -135 -238 -70 -121 -240
-414 -376 -651 -136 -236 -252 -436 -258 -443 -6 -8 -13 -9 -16 -3 -3 5 -21
13 -40 18 -19 5 -38 15 -42 23 -4 8 -20 74 -35 145 -30 143 -41 167 -84 185
-25 10 -34 10 -55 -4 -13 -9 -27 -26 -29 -39 -3 -12 -7 -34 -11 -50 -15 -71
-140 -161 -401 -289 -184 -90 -222 -122 -251 -214 -12 -40 -23 -55 -47 -67
l-31 -16 36 0 c32 -1 37 2 47 35 6 20 26 61 44 91 33 54 35 56 197 134 192 92
306 166 379 243 41 44 52 62 52 88 0 35 15 58 37 58 23 0 53 -39 53 -69 0 -35
-87 -132 -196 -221 -41 -33 -73 -60 -70 -60 3 0 39 20 81 45 41 24 75 41 75
37 0 -4 -26 -31 -57 -60 -66 -61 -58 -59 45 11 41 27 76 47 78 44 2 -2 -26
-37 -63 -78 l-68 -74 53 39 c28 21 52 35 52 32 0 -4 -19 -27 -42 -53 -51 -55
-26 -45 60 24 31 25 64 51 72 57 25 18 -19 -34 -99 -116 -42 -43 -71 -78 -66
-78 6 0 45 29 88 65 42 36 77 61 77 57 0 -13 -97 -131 -169 -206 -36 -38 -55
-62 -41 -53 45 30 175 151 230 215 30 35 56 58 58 52 7 -19 -37 -138 -86 -235
-38 -77 -69 -130 -177 -300 l-19 -30 23 20 24 20 -13 -25 c-13 -25 -40 -72
-343 -595 -83 -143 -162 -280 -176 -304 -30 -54 -13 -75 -185 224 -165 286
-872 1510 -1240 2145 l-275 475 325 3 324 2 0 110 0 110 -516 0 c-433 0 -515
-2 -511 -14z"/>
<path d="M2701 2014 c-76 -20 -147 -62 -187 -108 -19 -22 -34 -43 -34 -47 0
-5 21 5 48 21 57 36 210 90 175 62 -12 -9 -47 -32 -78 -51 -31 -18 -54 -35
-52 -37 2 -2 28 0 57 6 56 11 127 14 118 5 -3 -3 -38 -15 -78 -26 -41 -11
-107 -36 -148 -55 -67 -30 -84 -34 -161 -34 -62 0 -101 6 -139 20 -29 11 -61
20 -72 20 -11 0 -20 6 -20 14 0 10 -20 19 -57 26 -32 7 -76 16 -98 20 -22 5
-42 7 -45 4 -14 -15 15 -244 41 -311 9 -23 13 -25 50 -20 63 8 157 60 224 121
57 53 63 56 113 56 48 0 60 -5 110 -44 67 -51 167 -113 251 -155 l60 -31 30
61 c16 33 35 85 42 117 13 66 7 274 -12 340 -11 40 -13 42 -48 41 -20 0 -60
-7 -90 -15z"/>
</g>
</svg>
